<svg xmlns="http://www.w3.org/2000/svg" width="192" height="192" viewBox="0 0 192 192"><path d="M31 9H161Q183 9 183 31V161Q183 183 161 183H31Q9 183 9 161V31Q9 9 31 9z" fill="none" stroke="#315b4d" stroke-width="5"/><rect x="18" y="18" width="156" height="156" rx="3" fill="none" stroke="#c89549" stroke-width="2"/><path d="M54 8h84M54 184h84M8 54v84M184 54v84" stroke="#315b4d" stroke-width="10" fill="none"/><path d="M55 8h82M55 184h82M8 55v82M184 55v82" stroke="#f5b4ad" stroke-width="3" stroke-dasharray="9 7" fill="none"/><path d="M51 24h90M51 168h90M24 51v90M168 51v90" stroke="#c89549" stroke-width="2" stroke-dasharray="2 6" fill="none"/><g transform="translate(3 3) rotate(0 24 24)"><svg xmlns="http://www.w3.org/2000/svg" viewBox="-4 -4 108 108" width="48" height="48"><g fill="#c89549" fill-opacity=".20" stroke="#315b4d" stroke-width="3.5" stroke-linecap="round" stroke-linejoin="round"><path d="m28 29-6-17 16 8 12-17 12 17 16-8-6 17z" fill="#e6bc68"/><path d="M10 80h80l-7 10H17z" fill="#fff3dc"/><rect x="17" y="47" width="66" height="31" rx="12" fill="#fffdf5"/><path d="M16 49q3-16 20-16h29q17 1 20 16v7H16z" fill="#f49b99"/><path d="m26 36 13 17m2-18 13 18m2-17 13 17" stroke="#ffe9dc" fill="none"/><path d="M44 34h12v44H44z" fill="#315b4d"/><g transform="translate(50 64) scale(0.48)"><ellipse cx="0" cy="0" rx="21" ry="15"/><path d="M-9 -3v6M9 -3v6" stroke-width="5" fill="none"/></g></g></svg></g><g transform="translate(141 3) rotate(90 24 24)"><svg xmlns="http://www.w3.org/2000/svg" viewBox="-4 -4 108 108" width="48" height="48"><g fill="#c89549" fill-opacity=".20" stroke="#315b4d" stroke-width="3.5" stroke-linecap="round" stroke-linejoin="round"><path d="m28 29-6-17 16 8 12-17 12 17 16-8-6 17z" fill="#e6bc68"/><path d="M10 80h80l-7 10H17z" fill="#fff3dc"/><rect x="17" y="47" width="66" height="31" rx="12" fill="#fffdf5"/><path d="M16 49q3-16 20-16h29q17 1 20 16v7H16z" fill="#f49b99"/><path d="m26 36 13 17m2-18 13 18m2-17 13 17" stroke="#ffe9dc" fill="none"/><path d="M44 34h12v44H44z" fill="#315b4d"/><g transform="translate(50 64) scale(0.48)"><ellipse cx="0" cy="0" rx="21" ry="15"/><path d="M-9 -3v6M9 -3v6" stroke-width="5" fill="none"/></g></g></svg></g><g transform="translate(141 141) rotate(180 24 24)"><svg xmlns="http://www.w3.org/2000/svg" viewBox="-4 -4 108 108" width="48" height="48"><g fill="#c89549" fill-opacity=".20" stroke="#315b4d" stroke-width="3.5" stroke-linecap="round" stroke-linejoin="round"><path d="m28 29-6-17 16 8 12-17 12 17 16-8-6 17z" fill="#e6bc68"/><path d="M10 80h80l-7 10H17z" fill="#fff3dc"/><rect x="17" y="47" width="66" height="31" rx="12" fill="#fffdf5"/><path d="M16 49q3-16 20-16h29q17 1 20 16v7H16z" fill="#f49b99"/><path d="m26 36 13 17m2-18 13 18m2-17 13 17" stroke="#ffe9dc" fill="none"/><path d="M44 34h12v44H44z" fill="#315b4d"/><g transform="translate(50 64) scale(0.48)"><ellipse cx="0" cy="0" rx="21" ry="15"/><path d="M-9 -3v6M9 -3v6" stroke-width="5" fill="none"/></g></g></svg></g><g transform="translate(3 141) rotate(270 24 24)"><svg xmlns="http://www.w3.org/2000/svg" viewBox="-4 -4 108 108" width="48" height="48"><g fill="#c89549" fill-opacity=".20" stroke="#315b4d" stroke-width="3.5" stroke-linecap="round" stroke-linejoin="round"><path d="m28 29-6-17 16 8 12-17 12 17 16-8-6 17z" fill="#e6bc68"/><path d="M10 80h80l-7 10H17z" fill="#fff3dc"/><rect x="17" y="47" width="66" height="31" rx="12" fill="#fffdf5"/><path d="M16 49q3-16 20-16h29q17 1 20 16v7H16z" fill="#f49b99"/><path d="m26 36 13 17m2-18 13 18m2-17 13 17" stroke="#ffe9dc" fill="none"/><path d="M44 34h12v44H44z" fill="#315b4d"/><g transform="translate(50 64) scale(0.48)"><ellipse cx="0" cy="0" rx="21" ry="15"/><path d="M-9 -3v6M9 -3v6" stroke-width="5" fill="none"/></g></g></svg></g></svg>