<svg xmlns="http://www.w3.org/2000/svg" width="192" height="192" viewBox="0 0 192 192"><path d="M31 9H161Q183 9 183 31V161Q183 183 161 183H31Q9 183 9 161V31Q9 9 31 9z" fill="none" stroke="#ab537d" stroke-width="5"/><rect x="18" y="18" width="156" height="156" rx="3" fill="none" stroke="#bb8f46" stroke-width="2"/><g transform="translate(3 3) rotate(0 24 24)"><svg xmlns="http://www.w3.org/2000/svg" viewBox="-4 -4 108 108" width="48" height="48"><g fill="#bb8f46" fill-opacity=".20" stroke="#ab537d" stroke-width="3.5" stroke-linecap="round" stroke-linejoin="round"><path d="M17 42h66v43H17zM50 42v44M15 30h70v13H15zM49 30C10 27 31 2 49 30M51 30C90 27 69 2 51 30" fill="none"/></g></svg></g><g transform="translate(141 3) rotate(90 24 24)"><svg xmlns="http://www.w3.org/2000/svg" viewBox="-4 -4 108 108" width="48" height="48"><g fill="#bb8f46" fill-opacity=".20" stroke="#ab537d" stroke-width="3.5" stroke-linecap="round" stroke-linejoin="round"><path d="M17 42h66v43H17zM50 42v44M15 30h70v13H15zM49 30C10 27 31 2 49 30M51 30C90 27 69 2 51 30" fill="none"/></g></svg></g><g transform="translate(141 141) rotate(180 24 24)"><svg xmlns="http://www.w3.org/2000/svg" viewBox="-4 -4 108 108" width="48" height="48"><g fill="#bb8f46" fill-opacity=".20" stroke="#ab537d" stroke-width="3.5" stroke-linecap="round" stroke-linejoin="round"><path d="M17 42h66v43H17zM50 42v44M15 30h70v13H15zM49 30C10 27 31 2 49 30M51 30C90 27 69 2 51 30" fill="none"/></g></svg></g><g transform="translate(3 141) rotate(270 24 24)"><svg xmlns="http://www.w3.org/2000/svg" viewBox="-4 -4 108 108" width="48" height="48"><g fill="#bb8f46" fill-opacity=".20" stroke="#ab537d" stroke-width="3.5" stroke-linecap="round" stroke-linejoin="round"><path d="M17 42h66v43H17zM50 42v44M15 30h70v13H15zM49 30C10 27 31 2 49 30M51 30C90 27 69 2 51 30" fill="none"/></g></svg></g></svg>